<?xml version="1.0" encoding="UTF-8" standalone="no"?>
<svg
   xmlns:dc="http://purl.org/dc/elements/1.1/"
   xmlns:cc="http://creativecommons.org/ns#"
   xmlns:rdf="http://www.w3.org/1999/02/22-rdf-syntax-ns#"
   xmlns:svg="http://www.w3.org/2000/svg"
   xmlns="http://www.w3.org/2000/svg"
   xmlns:sodipodi="http://sodipodi.sourceforge.net/DTD/sodipodi-0.dtd"
   xmlns:inkscape="http://www.inkscape.org/namespaces/inkscape"
   viewBox="0 0 142 35.734"
   fill="none"
   version="1.1"
   id="svg21">
  <g
     clip-path="url(#clip0_2210_207272)"
     id="g12"
     transform="matrix(1.4434413,0,0,1.4434413,-2.1651619,-7.5696049)">
    <path
       d="m 1.5,8.6252 v 3 l 3.44063,3.33 L 9,17.2502 9.75,12.2008 9,7.5002 6.9,5.9252 C 4.67437,4.25645 1.5,5.84458 1.5,8.6252 Z"
       fill="#c5221f"
       id="path2" />
    <path
       d="M 27,7.5002 26.25,12.2627 27,17.2502 30.6844,15.4258 34.5,11.6252 v -3 c 0,-2.78062 -3.1744,-4.36875 -5.4,-2.7 z"
       fill="#ffba00"
       id="path4" />
    <path
       d="M 3.75,30 H 9 V 17.25 L 1.5,11.625 V 27.75 C 1.5,28.9931 2.50687,30 3.75,30 Z"
       fill="#2684fc"
       id="path6" />
    <path
       d="m 27,30 h 5.25 c 1.2431,0 2.25,-1.0069 2.25,-2.25 V 11.625 L 27,17.25 Z"
       fill="#00ac47"
       id="path8" />
    <path
       d="M 18,14.25 9,7.5 v 9.75 L 18,24 27,17.25 V 7.5 Z"
       fill="#e94235"
       id="path10" />
  </g>
  <path
     d="m 85.512346,18.790519 c 0,3.175571 -0.942135,5.70549 -2.826258,7.589613 -2.117095,2.24412 -4.900915,3.366106 -8.35175,3.366106 -3.302595,0 -6.097096,-1.143206 -8.383507,-3.429617 -2.286412,-2.286411 -3.429617,-5.102132 -3.429617,-8.447017 0,-3.344888 1.143205,-6.160608 3.429617,-8.4470186 2.286411,-2.286411 5.080912,-3.4296164 8.383507,-3.4296164 1.672514,0 3.249619,0.2963817 4.7316,0.8891598 1.481982,0.5928213 2.699235,1.4290068 3.651906,2.5087009 L 80.621968,11.486706 C 79.923342,10.639839 79.012964,9.9836511 77.890976,9.5178525 76.790063,9.0309798 75.604565,8.7874713 74.334338,8.7874713 c -2.476946,0 -4.572822,0.857404 -6.28763,2.5722117 -1.693591,1.736027 -2.540458,3.905952 -2.540458,6.509921 0,2.603968 0.846867,4.773893 2.540458,6.509919 1.714808,1.714809 3.810684,2.572213 6.28763,2.572213 2.265192,0 4.149459,-0.635115 5.652514,-1.905344 1.503056,-1.270227 2.371143,-3.016791 2.60397,-5.23969 h -8.256484 v -2.73099 h 11.019231 c 0.105803,0.592821 0.158777,1.164423 0.158777,1.714807 z m 6.081219,10.447628 H 88.67204 V 13.67785 h 2.794501 v 2.159388 h 0.127024 c 0.444579,-0.762137 1.121985,-1.39725 2.032365,-1.905341 0.931452,-0.508093 1.852368,-0.762138 2.762745,-0.762138 1.143206,0 2.148852,0.264583 3.016794,0.793893 0.867941,0.52931 1.503051,1.25969 1.905341,2.191143 1.29145,-1.990072 3.0803,-2.985036 5.36672,-2.985036 1.79952,0 3.1861,0.550385 4.15999,1.651297 0.9739,1.100913 1.46076,2.667478 1.46076,4.699843 v 9.717248 h -2.92153 V 19.96548 c 0,-1.460763 -0.26457,-2.5087 -0.79389,-3.143817 -0.52929,-0.656331 -1.41846,-0.984425 -2.66748,-0.984425 -1.12198,0 -2.06411,0.476335 -2.82624,1.429007 -0.76215,0.952672 -1.14322,2.074659 -1.14322,3.366104 v 8.605798 H 99.024399 V 19.96548 c 0,-1.460763 -0.264582,-2.5087 -0.793892,-3.143817 -0.529309,-0.656331 -1.41847,-0.984425 -2.667478,-0.984425 -1.121989,0 -2.064122,0.476335 -2.826259,1.429007 -0.762136,0.952672 -1.143205,2.074659 -1.143205,3.366104 z m 26.211165,-4.763355 c 0,0.762135 0.31756,1.39725 0.95268,1.90534 0.65617,0.508093 1.41831,0.762137 2.28639,0.762137 1.22779,0 2.31817,-0.455115 3.27084,-1.365495 0.97374,-0.910378 1.46076,-1.97939 1.46076,-3.207326 -0.91037,-0.719844 -2.18059,-1.079694 -3.81067,-1.079694 -1.18565,0 -2.18061,0.285801 -2.98505,0.857404 -0.78336,0.571603 -1.17495,1.280766 -1.17495,2.127634 z m 3.77893,-11.305033 c 2.15939,0 3.8635,0.582139 5.11267,1.746564 1.249,1.143205 1.87359,2.720454 1.87359,4.7316 v 9.590224 h -2.79452 v -2.159389 h -0.12702 c -1.20671,1.77832 -2.81571,2.66748 -4.82686,2.66748 -1.7148,0 -3.1545,-0.508091 -4.31877,-1.524274 -1.14321,-1.016183 -1.71481,-2.286411 -1.71481,-3.810685 0,-1.609004 0.60335,-2.88977 1.81006,-3.84244 1.22781,-0.952671 2.85803,-1.429006 4.89038,-1.429006 1.73589,0 3.1649,0.317555 4.28702,0.95267 v -0.66687 c 0,-1.016183 -0.40228,-1.873586 -1.2067,-2.572211 -0.80459,-0.719845 -1.74657,-1.079695 -2.82627,-1.079695 -1.63022,0 -2.92153,0.688088 -3.8742,2.064121 l -2.57221,-1.619542 c 1.41834,-2.032365 3.51422,-3.048547 6.28764,-3.048547 z m 14.17835,-4.8586234 c 0,0.5716027 -0.20108,1.0584756 -0.60336,1.4607626 -0.40214,0.4022878 -0.88916,0.6033578 -1.46077,0.6033578 -0.57162,0 -1.05848,-0.20107 -1.46076,-0.6033578 -0.40214,-0.402287 -0.60337,-0.8891599 -0.60337,-1.4607626 0,-0.5716027 0.20123,-1.0584755 0.60337,-1.4607626 0.40228,-0.4022437 0.88914,-0.6033584 1.46076,-0.6033584 0.57161,0 1.05863,0.2011147 1.46077,0.6033584 0.40228,0.4022871 0.60336,0.8891599 0.60336,1.4607626 z m -0.60336,5.3667144 v 15.560297 h -2.92153 V 13.67785 Z m 6.84162,-7.1767897 V 29.238147 h -2.92154 V 6.5010603 Z"
     fill="#5f6368"
     id="path14" />
  <defs
     id="defs19">
    <clipPath
       id="clip0_2210_207272">
      <rect
         width="36"
         height="36"
         fill="#ffffff"
         id="rect16" />
    </clipPath>
  </defs>
</svg>
