<svg xmlns="http://www.w3.org/2000/svg" height="800" width="1200" viewBox="-39.687495 -11.964325 343.95829 71.78595"><g transform="translate(236.6526 -100.294)"><path d="M-60.2922 138.8374h-9.3451v-25.8365h9.2077v3.1609s2.059-3.8562 6.8869-3.8562c5.0908 0 7.0105 4.1734 7.0105 4.1734s2.2893-4.1734 7.9824-4.1734c5.6116 0 9.0415 3.6594 9.0415 10.2907v16.241h-9.3451v-14.4299c0-1.6939-.9935-3.4577-3.0014-3.4577-2.0837 0-3.0455 1.9696-3.0455 3.9873v13.9004h-9.345v-14.1551c0-2.0164-1.031-3.7326-3.0578-3.7326-1.8804 0-2.9891 1.6402-2.9891 4.0075zm45.3249-26.5317c-7.1897 0-12.0083 6.1536-12.0083 13.6564 0 8.454 5.5505 13.577 11.8945 13.577 5.1774 0 7.4238-3.3129 7.4238-3.3129v2.6112h9.2077v-25.8365h-9.2077v2.6112s-2.4723-3.3064-7.31-3.3064zm2.3427 8.5028c3.128 0 5.2577 2.507 5.2577 5.1364 0 2.6368-2.128 5.2234-5.2405 5.2234-2.546 0-5.2233-2.0514-5.2233-5.1541 0-2.9922 2.3499-5.2056 5.2061-5.2056zm18.0504 18.0289v-25.8365h9.3451v25.8365z" fill="#7f19ff"/><circle r="5.2588" cy="105.5528" cx="10.1053" fill="#7f19ff"/><path d="M18.5857 138.8374v-37.243h9.345v37.243z" fill="#7f19ff"/><g transform="translate(-72.063 127.8664) scale(.63072)" fill="#35007d"><path d="M-260.9554-23.3516h15.741l9.1657 23.4497 9.2848-23.4497h15.3264l-23.0782 55.5131h-15.4235l6.3172-14.71zm65.484-.9334c-11.827 0-19.3036 10.6068-19.3036 21.1696 0 11.8863 8.1972 21.31 19.0792 21.31 8.1176 0 11.1783-4.9458 11.1783-4.9458v3.8526h13.7291v-40.4527h-13.7291v3.6775s-3.4148-4.6113-10.954-4.6113zm2.9202 12.9998c5.457 0 8.2731 4.318 8.2731 8.2143 0 4.1955-3.017 8.3127-8.273 8.3127-4.3563 0-8.293-3.56-8.293-8.1342 0-4.639 3.1665-8.3928 8.293-8.3928zm26.4911 28.3864v-58.315h14.3598v21.68s3.4109-4.7463 10.5543-4.7463c8.738 0 13.8575 6.5105 13.8575 15.8137v25.5676h-14.2548V-4.964c0-3.1484-1.4997-6.1899-4.8968-6.1899-3.458 0-5.2602 3.0876-5.2602 6.19v22.065zm63.2546-41.3815c-13.544 0-21.6088 10.299-21.6088 21.3332 0 12.5572 9.7646 21.1416 21.6601 21.1416 11.5297 0 21.6185-8.1948 21.6185-20.931 0-13.9355-10.5633-21.5438-21.6698-21.5438zm.1294 13.1142c4.7842 0 8.0945 3.9847 8.0945 8.234 0 3.6244-3.0846 8.0946-8.0945 8.0946-4.5906 0-8.0357-3.6824-8.0357-8.1342 0-4.2886 2.8642-8.1944 8.0357-8.1944zm45.4632-13.1142c-13.544 0-21.6089 10.299-21.6089 21.3332 0 12.5572 9.7647 21.1416 21.6602 21.1416 11.5297 0 21.6185-8.1948 21.6185-20.931 0-13.9355-10.5633-21.5438-21.6698-21.5438zm.1293 13.1142c4.7843 0 8.0946 3.9847 8.0946 8.234 0 3.6244-3.0846 8.0946-8.0946 8.0946-4.5906 0-8.0356-3.6824-8.0356-8.1342 0-4.2886 2.8642-8.1944 8.0356-8.1944z"/><circle cx="-24.2122" cy="8.4245" r="9.5355"/><path d="M-11.5434-4.6137h-17.1664l15.2355-36.6001H3.6279z"/></g></g></svg>